<svg width="50" height="43" viewBox="0 0 50 43" fill="none" xmlns="http://www.w3.org/2000/svg">
<path fill-rule="evenodd" clip-rule="evenodd" d="M10.9265 26.2915V30.95C10.9265 31.9395 11.8592 32.7416 13.0098 32.7416H44.2598C45.4103 32.7416 46.3431 31.9395 46.3431 30.95V16.6166C46.3431 15.6272 45.4103 14.825 44.2598 14.825H37.1186V16.6166H41.1359C41.1365 16.9684 41.2173 17.3166 41.3737 17.6416C41.5308 17.9676 41.761 18.264 42.0512 18.5135C42.3414 18.763 42.6859 18.961 43.065 19.0961C43.4438 19.231 43.8498 19.3005 44.2598 19.3006V28.2625C43.8556 28.2645 43.4556 28.334 43.0821 28.4671C42.7029 28.6022 42.3584 28.8 42.0682 29.0496C41.778 29.2992 41.5479 29.5954 41.3908 29.9215C41.2337 30.2476 41.1529 30.5971 41.1529 30.95H16.1304C16.1254 30.6085 16.0448 30.2709 15.8928 29.9552C15.7357 29.6291 15.5055 29.3329 15.2153 29.0833C14.9252 28.8337 14.5807 28.6357 14.2016 28.5007C13.8236 28.3661 13.4187 28.2966 13.0098 28.2961V26.2915H10.9265Z" fill="#333333"/>
<path d="M25.5319 19.2167C25.5319 21.1957 23.6665 22.8 21.3652 22.8C19.0641 22.8 17.1985 21.1957 17.1985 19.2167C17.1985 17.2376 19.0641 15.6334 21.3652 15.6334C23.6665 15.6334 25.5319 17.2376 25.5319 19.2167Z" fill="#333333"/>
<path fill-rule="evenodd" clip-rule="evenodd" d="M5.74022 10.2584C4.58963 10.2584 3.65689 11.0605 3.65689 12.05V26.3834C3.65689 27.3728 4.58963 28.175 5.74022 28.175H36.9902C38.1408 28.175 39.0735 27.3728 39.0735 26.3834V12.05C39.0735 11.0605 38.1408 10.2584 36.9902 10.2584H5.74022ZM8.86332 12.05H33.8663C33.8669 12.4017 33.9477 12.7499 34.1043 13.075C34.2612 13.401 34.4915 13.6973 34.7817 13.9469C35.0719 14.1964 35.4163 14.3943 35.7955 14.5294C36.1743 14.6643 36.5802 14.7339 36.9902 14.734V23.6959C36.586 23.6979 36.186 23.7673 35.8125 23.9004C35.4333 24.0355 35.0888 24.2335 34.7987 24.483C34.5085 24.7325 34.2783 25.0288 34.1212 25.3549C33.9643 25.6809 33.8834 26.0304 33.8834 26.3834H8.86086C8.85588 26.0419 8.77528 25.7042 8.62322 25.3885C8.46618 25.0625 8.23599 24.7662 7.94582 24.5166C7.65563 24.2671 7.31113 24.0692 6.93199 23.9341C6.55412 23.7995 6.1492 23.73 5.74022 23.7295V14.7375C6.14995 14.7373 6.55565 14.6677 6.9342 14.5329C7.31335 14.3978 7.65784 14.1999 7.94803 13.9504C8.23821 13.7008 8.46839 13.4045 8.62544 13.0784C8.78248 12.7524 8.86332 12.4029 8.86332 12.05Z" fill="#333333"/>
</svg>
