<svg width="40" height="40" viewBox="0 0 40 40" fill="none" xmlns="http://www.w3.org/2000/svg">
<g clip-path="url(#clip0_78_4868)">
<path d="M12.5 15C13.6537 15 14.7816 14.6579 15.7408 14.0169C16.7001 13.3759 17.4478 12.4649 17.8893 11.399C18.3308 10.3331 18.4463 9.16021 18.2213 8.02865C17.9962 6.8971 17.4406 5.8577 16.6248 5.04189C15.809 4.22608 14.7696 3.67051 13.638 3.44543C12.5065 3.22035 11.3336 3.33587 10.2677 3.77738C9.20179 4.21889 8.29075 4.96657 7.64977 5.92585C7.0088 6.88514 6.66668 8.01296 6.66668 9.16668C6.66844 10.7132 7.28359 12.1959 8.37717 13.2895C9.47075 14.3831 10.9535 14.9982 12.5 15V15ZM12.5 5.00001C13.3241 5.00001 14.1297 5.24438 14.8149 5.70222C15.5001 6.16006 16.0341 6.81081 16.3495 7.57217C16.6649 8.33352 16.7474 9.1713 16.5866 9.97956C16.4258 10.7878 16.029 11.5302 15.4463 12.113C14.8636 12.6957 14.1211 13.0925 13.3129 13.2533C12.5046 13.4141 11.6669 13.3315 10.9055 13.0162C10.1441 12.7008 9.49339 12.1668 9.03555 11.4816C8.57771 10.7964 8.33334 9.99077 8.33334 9.16668C8.33467 8.06202 8.77408 7.00298 9.55519 6.22186C10.3363 5.44075 11.3953 5.00134 12.5 5.00001V5.00001ZM17.0217 28.3333C16.8655 28.8779 16.7606 29.4359 16.7083 30H3.33334V24.1667C3.33555 22.1782 4.12643 20.2719 5.53248 18.8658C6.93852 17.4598 8.8449 16.6689 10.8333 16.6667H14.1667C15.9081 16.6695 17.5943 17.2778 18.9364 18.3873C20.2786 19.4968 21.1931 21.0386 21.5233 22.7483C20.9687 23.0452 20.4459 23.3981 19.9633 23.8017C19.8727 22.3243 19.2231 20.9369 18.1464 19.9212C17.0698 18.9055 15.6468 18.3378 14.1667 18.3333H10.8333C9.28679 18.3351 7.80408 18.9503 6.7105 20.0438C5.61692 21.1374 5.00177 22.6201 5.00001 24.1667V28.3333H17.0217ZM27.5 21.6667C28.6537 21.6667 29.7816 21.3246 30.7408 20.6836C31.7001 20.0426 32.4478 19.1316 32.8893 18.0657C33.3308 16.9998 33.4463 15.8269 33.2213 14.6953C32.9962 13.5638 32.4406 12.5244 31.6248 11.7086C30.809 10.8928 29.7696 10.3372 28.638 10.1121C27.5065 9.88702 26.3336 10.0025 25.2677 10.444C24.2018 10.8856 23.2907 11.6332 22.6498 12.5925C22.0088 13.5518 21.6667 14.6796 21.6667 15.8333C21.6684 17.3799 22.2836 18.8626 23.3772 19.9562C24.4708 21.0498 25.9535 21.6649 27.5 21.6667ZM27.5 11.6667C28.3241 11.6667 29.1297 11.9111 29.8149 12.3689C30.5001 12.8267 31.0341 13.4775 31.3495 14.2388C31.6649 15.0002 31.7474 15.838 31.5866 16.6462C31.4258 17.4545 31.029 18.1969 30.4463 18.7796C29.8636 19.3623 29.1211 19.7592 28.3129 19.92C27.5046 20.0807 26.6669 19.9982 25.9055 19.6828C25.1441 19.3675 24.4934 18.8334 24.0356 18.1482C23.5777 17.463 23.3333 16.6574 23.3333 15.8333C23.3347 14.7287 23.7741 13.6696 24.5552 12.8885C25.3363 12.1074 26.3953 11.668 27.5 11.6667V11.6667ZM36.6667 30.8333C36.6645 28.8449 35.8736 26.9385 34.4675 25.5325C33.0615 24.1264 31.1551 23.3356 29.1667 23.3333H25.8333C23.8449 23.3356 21.9385 24.1264 20.5325 25.5325C19.1264 26.9385 18.3355 28.8449 18.3333 30.8333V36.6667H36.6667V30.8333ZM35 35H20V30.8333C20.0018 29.2868 20.6169 27.8041 21.7105 26.7105C22.8041 25.6169 24.2868 25.0018 25.8333 25H29.1667C30.7132 25.0018 32.1959 25.6169 33.2895 26.7105C34.3831 27.8041 34.9982 29.2868 35 30.8333V35Z" fill="#333333"/>
</g>
<defs>
<clipPath id="clip0_78_4868">
<rect width="40" height="40" fill="white"/>
</clipPath>
</defs>
</svg>
