<svg width="40" height="40" viewBox="0 0 40 40" fill="none" xmlns="http://www.w3.org/2000/svg">
<path d="M20.6518 7.10308C19.9767 6.41571 18.8612 6.44223 18.2195 7.16089L7.92343 18.6925C7.65073 18.9978 7.5 19.393 7.5 19.8025V32.5C7.5 33.4205 8.2462 34.1667 9.16667 34.1667H14.1667C15.0871 34.1667 15.8333 33.4205 15.8333 32.5V26.6667C15.8333 25.7462 16.5795 25 17.5 25H22.5C23.4205 25 24.1667 25.7462 24.1667 26.6667V32.5C24.1667 33.4205 24.9128 34.1667 25.8333 34.1667H30.8333C31.7538 34.1667 32.5 33.4205 32.5 32.5V19.8483C32.5 19.4115 32.3285 18.9922 32.0223 18.6805L20.6518 7.10308Z" stroke="#333333" stroke-width="2"/>
</svg>
